<svg width="60" height="60" viewBox="0 0 60 60" fill="none" xmlns="http://www.w3.org/2000/svg">
<path d="M15.9 46.95L16.525 52.5L20.575 48.6499L27.5 29.65C25.8 29.225 24.3 28.375 23.075 27.2L15.9 46.95Z" fill="black"/>
<path d="M36.925 27.2C35.7 28.375 34.175 29.225 32.5 29.65L39.425 48.6499L43.475 52.5L44.125 46.95L36.925 27.2Z" fill="black"/>
<path d="M37.5 20C37.5 16.75 35.4 14 32.5 12.95V7.5H27.5V12.95C24.6 14 22.5 16.75 22.5 20C22.5 24.15 25.85 27.5 30 27.5C34.15 27.5 37.5 24.15 37.5 20ZM30 22.5C28.625 22.5 27.5 21.375 27.5 20C27.5 18.625 28.625 17.5 30 17.5C31.375 17.5 32.5 18.625 32.5 20C32.5 21.375 31.375 22.5 30 22.5Z" fill="black"/>
</svg>
